<?xml version="1.0" encoding="utf-8"?>
<!-- Generator: Adobe Illustrator 16.0.4, SVG Export Plug-In . SVG Version: 6.00 Build 0)  -->
<!DOCTYPE svg PUBLIC "-//W3C//DTD SVG 1.1//EN" "http://www.w3.org/Graphics/SVG/1.1/DTD/svg11.dtd">
<svg version="1.1" id="Layer_1" xmlns="http://www.w3.org/2000/svg" xmlns:xlink="http://www.w3.org/1999/xlink" x="0px" y="0px"
	 width="512px" height="512px" viewBox="0 0 512 512" enable-background="new 0 0 512 512" xml:space="preserve">
<linearGradient id="SVGID_1_" gradientUnits="userSpaceOnUse" x1="267.3965" y1="43.2827" x2="245.7316" y2="486.8117">
	<stop  offset="0" style="stop-color:#DF0CEA"/>
	<stop  offset="0.1136" style="stop-color:#E13FEA"/>
	<stop  offset="0.2436" style="stop-color:#E372E9"/>
	<stop  offset="0.3718" style="stop-color:#E59CE9"/>
	<stop  offset="0.4956" style="stop-color:#E6BDE8"/>
	<stop  offset="0.6136" style="stop-color:#E7D5E8"/>
	<stop  offset="0.7235" style="stop-color:#E8E3E8"/>
	<stop  offset="0.8173" style="stop-color:#E8E8E8"/>
	<stop  offset="1" style="stop-color:#FFFFFF"/>
</linearGradient>
<path fill="url(#SVGID_1_)" stroke="#DF0CEA" stroke-width="10" stroke-linecap="round" stroke-linejoin="round" stroke-miterlimit="10" d="
	M407.808,129.182c29.574-10.754,61.557,7.41,61.557,7.41c-41.764-68.43-139.523-67.9-139.523-67.9
	c16.133-26.886,68.656-13.099,68.656-13.099C289.612-14.308,188.696,72.724,188.696,72.724
	c-5.377-25.541,28.229-51.016,28.229-51.016c-86.032-1.344-126.957,115.54-126.957,115.54c-12.098-25.541-0.747-59.146-0.747-59.146
	C34.107,109.02,60.992,239.41,60.992,239.41c-18.708-5.377-34.328-49.736-34.328-49.736C6.938,304.324,70.042,357,111.847,382.191
	C138.449,398.222,188.826,422,257.542,422c81.938,0,129.064-32.135,153.455-54.08C492.042,295,446.79,212.15,446.79,212.15
	c29.574,5.377,45.705,42.047,45.705,42.047C501.905,146.658,407.808,129.182,407.808,129.182z"/>
<linearGradient id="SVGID_2_" gradientUnits="userSpaceOnUse" x1="510.2705" y1="-342.0957" x2="532.5882" y2="129.8685" gradientTransform="matrix(1 0 0 -1 -258 165)">
	<stop  offset="0" style="stop-color:#646464"/>
	<stop  offset="0.4339" style="stop-color:#ADADAD"/>
	<stop  offset="0.8173" style="stop-color:#E8E8E8"/>
	<stop  offset="1" style="stop-color:#FFFFFF"/>
</linearGradient>
<path display="none" fill="url(#SVGID_2_)" stroke="#DF0CEA" stroke-width="10" stroke-linecap="round" stroke-linejoin="round" stroke-miterlimit="10" d="
	M138.292,400.627c0,0-108.79-23.301-109.537-189.543c0,0,21.62,44.359,40.328,49.736c0,0-26.885-130.391,28.229-161.308
	c0,0-11.351,33.605,0.747,59.146c0,0,40.925-108.884,126.957-107.54c0,0-33.606,17.475-28.229,43.016
	c0,0,112.917-86.032,221.801-16.131c0,0-64.522-14.787-80.655,12.099c0,0,114.263-2.689,146.523,69.9c0,0-38.983-20.164-68.558-9.41
	c0,0,94.098,17.476,84.688,125.016c0,0-16.131-41.67-45.705-47.047c0,0,20.207,107.543-77.923,172.068L138.292,400.627
	L138.292,400.627z"/>
<path fill="#FFFFFF" stroke="#000000" stroke-width="8" stroke-linecap="round" stroke-linejoin="round" stroke-miterlimit="10" d="
	M161.667,305.975c0,0-69.339,126.934-7.504,165.467c13.686,8.527,49.482,13.564,34.101-9.975
	C178.125,445.953,167,449,180.053,416.835c0,0,51.281,63.167,142.499,0.081c13.116,30.753,4.1,29.037-6.041,44.551
	c-15.381,23.539,20.417,18.502,34.104,9.975C412.448,432.906,343,303.82,343,303.82L161.667,305.975z"/>
<path fill="none" stroke="#000000" stroke-width="8" stroke-linecap="round" stroke-linejoin="round" stroke-miterlimit="10" d="
	M164.501,192.946c1.425,0.625,135.498,59.365,177.905-1.414c0,0,12.975-14.343,22.537-47.127c0,0-29.712,47.468-67.104,40.497
	c5.986,1.534,25.562-5.069,38.418-40.497c0,0-10.473,21.401-30.053,16.392"/>
<path fill="#FFFFFF" stroke="#000000" stroke-width="7" stroke-linecap="round" stroke-linejoin="round" stroke-miterlimit="10" d="
	M343.949,189.395l-1.428,2.032c-40.982,58.737-176.896,0.948-176.896,0.948l-14.697-34.225c0,0-45.76,42.308-22.146,59.614
	c-6.835,28-22.588,105.724,49.663,138.362c26.273,11.867,94.659,39.828,170.917-11.931c14.696-9.973,32.455-26.821,37.92-37.297
	C387.281,306.9,312.615,298.715,343.949,189.395z"/>
<g>
	<path stroke="#000000" stroke-width="3" stroke-linecap="round" stroke-linejoin="round" stroke-miterlimit="10" d="
		M319.074,249.144c3.502,0.27,3.291,9.486,2.572,13.256c-0.144,0.744-2.541,0.688-2.806,1.4c-2.285,6.229-6.043,15.992-6.043,15.992
		l-32.055-27.885C280.744,251.909,297.719,247.505,319.074,249.144z"/>
	<path stroke="#000000" stroke-width="3" stroke-linecap="round" stroke-linejoin="round" stroke-miterlimit="10" d="
		M160.675,266.176c-1.684,0.504-1.984,2.998-1.675,5.805c0.308,2.808,1.227,5.933,1.978,7.697c0.148,0.348,0.806,0.381,1.477,0.408
		c0.672,0.021,1.358,0.043,1.562,0.364c1.778,2.802,4.104,6.386,5.986,9.271s3.319,5.07,3.319,5.07l9.825-16.814l17.425-17.438
		c-3.216,0.014-12.174,0.504-18.608,1.072C176.456,262.096,170.936,263.105,160.675,266.176z"/>
	<path stroke="#000000" stroke-width="3" stroke-linecap="round" stroke-linejoin="round" stroke-miterlimit="10" d="
		M216.586,262.121c0,0,21.089,8.678,45.807-3.87c0,0-14.081,17.968-1.439,29.349c0,0-18.718-24.449-33.853,3.639
		C227.101,291.236,228.009,265.561,216.586,262.121z"/>
	<path d="M287.553,300.102c-7.453,0.799-15.514-1.521-21.037-6.062c-5.119-4.205-11.398-10.908-12.24-18.938
		c-0.717-6.858,1.216-10.086,5.82-14.729c4.646-4.687,15.111-7.719,22.871-8.553c8.295-0.893,19.918-0.568,25.363,3.271
		c5.863,4.14,6.498,11.208,6.637,17.509c0.154,7.092-2.569,14.228-7.479,19.578C303.537,296.49,297.014,299.082,287.553,300.102z"/>
	<path d="M283.016,252.286c7.662-0.824,19.525-0.695,25.021,3.186c5.496,3.877,6.293,10.356,6.438,17.142
		c0.16,7.43-2.809,14.299-7.354,19.26c-4.545,4.957-11.955,6.937-19.619,7.76c-7.664,0.824-15.482-1.692-20.666-5.948
		c-6.24-5.129-11.335-11.582-12.074-18.638c-0.682-6.514,0.939-9.565,5.687-14.354C264.988,256.112,275.352,253.11,283.016,252.286
		 M282.914,251.353c-7.844,0.844-18.441,3.925-23.172,8.697c-4.712,4.751-6.202,8.009-5.466,15.052
		c0.854,8.188,6.082,15.104,11.269,19.367c5.623,4.619,14.475,6.912,22.057,6.1c9.592-1.03,16.219-3.674,20.257-8.078
		c4.981-5.44,7.756-12.694,7.598-19.903c-0.137-6.412-0.791-13.606-6.832-17.872C303.064,250.79,291.301,250.45,282.914,251.353
		L282.914,251.353z"/>
	<path d="M203.188,309.172c-9.463,1.018-16.386-0.127-21.165-3.502c-5.931-4.188-10.112-10.58-11.47-17.541
		c-1.206-6.188-2.086-13.229,2.763-18.521c4.504-4.912,15.79-7.695,24.089-8.59c7.758-0.834,18.628-0.097,24.166,3.493
		c5.485,3.558,8.059,6.3,8.816,13.154c0.887,8.026-3.824,15.91-7.932,21.11C218.022,304.387,210.641,308.371,203.188,309.172z"/>
	<path d="M197.456,261.486c7.664-0.824,18.426-0.094,23.839,3.418c5.655,3.666,8.212,6.272,8.931,12.781
		c0.78,7.049-3.151,14.473-8.159,20.812c-4.159,5.262-11.265,9.381-18.929,10.207c-7.663,0.823-15.325,0.467-20.821-3.412
		c-5.497-3.881-9.859-9.959-11.281-17.256c-1.299-6.66-1.898-13.158,2.648-18.117C178.229,264.957,189.792,262.311,197.456,261.486
		 M197.356,260.553c-8.386,0.902-19.809,3.732-24.406,8.748c-4.997,5.451-4.104,12.623-2.877,18.916
		c1.38,7.078,5.629,13.576,11.659,17.834c4.88,3.445,11.916,4.619,21.506,3.586c7.582-0.814,16.069-4.971,20.58-10.682
		c4.163-5.27,8.61-13.229,7.707-21.41c-0.7-6.334-5.006-10.395-9.676-13.422C216.208,260.467,205.198,259.71,197.356,260.553
		L197.356,260.553z"/>
	<path fill="none" stroke="#000000" stroke-width="8" stroke-linecap="round" stroke-linejoin="round" stroke-miterlimit="10" d="
		M287.502,299.633c-7.664,0.824-15.809-1.656-20.99-5.914c-6.242-5.129-11.011-11.617-11.75-18.672
		c-0.682-6.515,0.939-9.566,5.687-14.354c4.541-4.582,14.902-7.583,22.566-8.408c7.662-0.824,19.524-0.695,25.021,3.187
		c5.496,3.877,6.293,10.355,6.438,17.141c0.16,7.432-2.809,14.301-7.354,19.262C302.576,296.83,295.166,298.809,287.502,299.633"/>
	<path fill="none" stroke="#000000" stroke-width="8" stroke-linecap="round" stroke-linejoin="round" stroke-miterlimit="10" d="
		M203.137,308.705c7.664-0.826,15.419-5.014,19.578-10.277c5.009-6.338,8.614-13.727,7.835-20.775
		c-0.719-6.508-3.601-9.08-9.256-12.746c-5.413-3.512-16.175-4.243-23.839-3.418c-7.664,0.824-19.226,3.472-23.773,8.435
		c-4.546,4.959-3.947,11.457-2.648,18.117c1.422,7.297,5.784,13.375,11.281,17.256C187.812,309.172,195.475,309.529,203.137,308.705
		"/>
</g>
<ellipse stroke="#000000" stroke-width="3" stroke-linecap="round" stroke-linejoin="round" stroke-miterlimit="10" cx="371.515" cy="315.279" rx="22.639" ry="20.712"/>
<path fill="#FFFFFF" stroke="#FFFFFF" stroke-width="5" stroke-linecap="round" stroke-linejoin="round" stroke-miterlimit="10" d="
	M382.25,309.012c0,1.649-1.186,2.987-2.972,2.987c-1.789,0-2.974-1.338-2.974-2.987c0-1.652,1.185-2.99,2.974-2.99
	C381.065,306.02,382.25,307.357,382.25,309.012z"/>
</svg>
