<?xml version="1.0" encoding="utf-8"?>
<!-- Generator: Adobe Illustrator 16.0.4, SVG Export Plug-In . SVG Version: 6.00 Build 0)  -->
<!DOCTYPE svg PUBLIC "-//W3C//DTD SVG 1.1//EN" "http://www.w3.org/Graphics/SVG/1.1/DTD/svg11.dtd">
<svg version="1.1" id="Layer_1" xmlns="http://www.w3.org/2000/svg" xmlns:xlink="http://www.w3.org/1999/xlink" x="0px" y="0px"
	 width="120px" height="120px" viewBox="0 0 120 120" enable-background="new 0 0 120 120" xml:space="preserve">
<path fill="none" stroke="#000000" stroke-width="2" stroke-linecap="round" stroke-linejoin="round" stroke-miterlimit="10" d="
	M33.78,63.871c-2.895-14.883-3.166-36.488,15.788-40.383c9.694-1.993,18.858,4.09,26.812,9.036
	c4.661,2.897,14.769,11.523,20.94,9.973c7.279-1.829,7.06-15.575,7.685-21.298c-1.95-4.991-5.479-12.004,0.963-14.565
	c5.378-2.136,9.489,3.483,7.541,8.614c-1.362,3.587-5.388,4.759-8.459,6.499"/>
<linearGradient id="SVGID_1_" gradientUnits="userSpaceOnUse" x1="367.5898" y1="1504.4668" x2="337.1148" y2="1575.1926" gradientTransform="matrix(0.9947 -0.1033 0.2786 0.9764 -719.7034 -1384.9751)">
	<stop  offset="0" style="stop-color:#DF0CEA"/>
	<stop  offset="0.1136" style="stop-color:#E13FEA"/>
	<stop  offset="0.2436" style="stop-color:#E372E9"/>
	<stop  offset="0.3718" style="stop-color:#E59CE9"/>
	<stop  offset="0.4956" style="stop-color:#E6BDE8"/>
	<stop  offset="0.6136" style="stop-color:#E7D5E8"/>
	<stop  offset="0.7235" style="stop-color:#E8E3E8"/>
	<stop  offset="0.8173" style="stop-color:#E8E8E8"/>
	<stop  offset="1" style="stop-color:#FFFFFF"/>
</linearGradient>
<path fill="url(#SVGID_1_)" stroke="#DF0CEA" stroke-width="2" stroke-linecap="round" stroke-linejoin="round" stroke-miterlimit="10" d="
	M79.342,58.937c4.025-2.064,9.645,0.135,9.645,0.135c-9.236-9.527-24.033-7.909-24.033-7.909c1.305-4.254,9.854-3.03,9.854-3.03
	c-19.477-8.688-31.079,5.853-31.079,5.853c-1.9-3.716,2.113-8.036,2.113-8.036C32.741,47.103,31.5,65.143,31.5,65.143
	c-2.919-3.609-2.625-8.792-2.625-8.792c-7.042,5.468,2.572,24.451,2.572,24.451c-3.063-0.506-7.316-6.861-7.316-6.861
	c1.88,17.373,13.683,24.222,21.091,27.312c7.358,3.071,13.369,4.711,23.778,3.631c12.422-1.29,18.201-6.815,20.967-10.464
	c9.189-12.13-1.189-23.747-1.189-23.747c4.709,0.335,8.715,5.539,8.715,5.539C94.348,60.057,79.342,58.937,79.342,58.937z"/>
<g>
	<path fill="none" stroke="#000000" stroke-width="1.5" stroke-linecap="round" stroke-linejoin="round" stroke-miterlimit="10" d="
		M55.778,62.196c-3.139,0.646-9.288-3.028-9.288-3.028c3.259,2.957,8.009,8.123,10.14,8.133c-5.881,1.824-14.882-8.412-14.882-8.412
		c3.001,6.652,5.313,9.293,7.239,11.497c5.722,6.547,26.105,3.271,27.554,0.364"/>
	
		<path fill="#FFFFFF" stroke="#000000" stroke-width="1.5" stroke-linecap="round" stroke-linejoin="round" stroke-miterlimit="10" d="
		M38.642,84.621c0.897,1.918,3.804,5.249,6.208,7.341c12.471,10.856,23.613,8.086,27.894,6.832
		c11.771-3.446,11.088-16.841,8.029-21.86c4.121-3.1-3.646-10.648-3.646-10.648l-2.38,5.339c0,0-24.044,4.462-28.865-5.151
		c-0.05-0.101-0.234-0.384-0.234-0.384C51.809,85.713,38.397,84.621,38.642,84.621z"/>
	<path stroke="#000000" stroke-width="2" stroke-linecap="round" stroke-linejoin="round" stroke-miterlimit="10" d="M44.823,87.113
		c0.005,1.924-1.643,3.195-3.684,2.844c-2.04-0.354-3.699-2.199-3.705-4.121c-0.007-1.924,1.642-3.197,3.683-2.845
		C43.157,83.346,44.816,85.189,44.823,87.113z"/>
	
		<path fill="#FFFFFF" stroke="#FFFFFF" stroke-width="2" stroke-linecap="round" stroke-linejoin="round" stroke-miterlimit="10" d="
		M39.857,84.697c0.292,0.051,0.486,0.31,0.486,0.589c0.001,0.276-0.192,0.469-0.484,0.419c-0.291-0.053-0.484-0.311-0.486-0.587
		C39.373,84.84,39.564,84.646,39.857,84.697z"/>
	<g>
		
			<path fill="none" stroke="#000000" stroke-width="0.5" stroke-linecap="round" stroke-linejoin="round" stroke-miterlimit="10" d="
			M55.005,86.025c-2.192-0.623-3.448-2.955-2.806-5.203c0.643-2.25,2.939-3.567,5.13-2.943c2.192,0.63,3.45,2.96,2.807,5.208
			C59.495,85.336,57.196,86.654,55.005,86.025z"/>
		<path d="M58.65,83.125c0,1.652-1.562,2.99-3.073,2.99c-1.511,0-2.738-1.338-2.738-2.99c0-1.648,1.225-2.989,2.738-2.989
			C57.09,80.136,58.65,81.475,58.65,83.125z"/>
		<path fill="#FFFFFF" d="M56.958,83.152c-0.348,0.479-0.59,0.475-0.785,0.332c-0.2-0.146-0.277-0.373,0.074-0.854
			c0.351-0.478,0.592-0.472,0.788-0.328C57.23,82.445,57.31,82.675,56.958,83.152z"/>
		<path fill="#FFFFFF" d="M55.985,83.805c0.132,0.037,0.194,0.219,0.142,0.398c-0.052,0.182-0.2,0.301-0.332,0.264
			c-0.13-0.037-0.194-0.215-0.142-0.398C55.707,83.886,55.854,83.768,55.985,83.805z"/>
	</g>
	<g>
		
			<path fill="none" stroke="#000000" stroke-width="0.5" stroke-linecap="round" stroke-linejoin="round" stroke-miterlimit="10" d="
			M69.57,86.223c-2.152-0.615-3.387-2.904-2.756-5.115c0.631-2.209,2.889-3.504,5.043-2.887c2.149,0.613,3.387,2.901,2.754,5.113
			C73.98,85.543,71.727,86.835,69.57,86.223z"/>
		<path d="M72.936,83.415c0,1.599-1.512,2.892-2.977,2.892c-1.46,0-2.646-1.293-2.646-2.892c0-1.597,1.188-2.89,2.646-2.89
			C71.424,80.525,72.936,81.818,72.936,83.415z"/>
		<path fill="#FFFFFF" d="M71.432,83.348c-0.35,0.479-0.591,0.473-0.783,0.327c-0.198-0.144-0.276-0.372,0.072-0.853
			c0.353-0.477,0.594-0.471,0.786-0.327C71.704,82.639,71.784,82.866,71.432,83.348z"/>
		<path fill="#FFFFFF" d="M70.459,83.997c0.132,0.038,0.191,0.218,0.143,0.397c-0.053,0.183-0.199,0.301-0.332,0.266
			c-0.131-0.039-0.192-0.219-0.141-0.399C70.18,84.076,70.327,83.96,70.459,83.997z"/>
	</g>
	<path fill="none" stroke="#000000" stroke-width="1.5" stroke-linecap="round" stroke-linejoin="round" stroke-miterlimit="10" d="
		M57.607,91.836c0,0,7.055,7.292,12.685,0"/>
</g>
<g>
	
		<linearGradient id="SVGID_2_" gradientUnits="userSpaceOnUse" x1="110.5947" y1="-603.249" x2="126.1367" y2="-603.249" gradientTransform="matrix(0.9639 -0.2663 -0.2663 -0.9639 -215.7073 -509.1173)">
		<stop  offset="0" style="stop-color:#00FFFF"/>
		<stop  offset="0.2411" style="stop-color:#0000FF"/>
		<stop  offset="0.2769" style="stop-color:#2800FF"/>
		<stop  offset="0.3326" style="stop-color:#6000FF"/>
		<stop  offset="0.3885" style="stop-color:#9100FF"/>
		<stop  offset="0.4435" style="stop-color:#B900FF"/>
		<stop  offset="0.4974" style="stop-color:#D700FF"/>
		<stop  offset="0.5497" style="stop-color:#ED00FF"/>
		<stop  offset="0.5999" style="stop-color:#FB00FF"/>
		<stop  offset="0.6457" style="stop-color:#FF00FF"/>
		<stop  offset="0.7133" style="stop-color:#BF40BF"/>
		<stop  offset="0.7908" style="stop-color:#7C837C"/>
		<stop  offset="0.8611" style="stop-color:#46B946"/>
		<stop  offset="0.9215" style="stop-color:#20DF20"/>
		<stop  offset="0.9699" style="stop-color:#09F609"/>
		<stop  offset="1" style="stop-color:#00FF00"/>
	</linearGradient>
	
		<path fill="none" stroke="url(#SVGID_2_)" stroke-width="2" stroke-linecap="round" stroke-linejoin="round" stroke-miterlimit="10" d="
		M52.14,41.321c4.676-1.638,8.985-2.292,13.805-0.886"/>
	
		<linearGradient id="SVGID_3_" gradientUnits="userSpaceOnUse" x1="290.5205" y1="-535.3115" x2="306.0625" y2="-535.3115" gradientTransform="matrix(0.9966 -0.0829 -0.0829 -0.9966 -278.6607 -470.8292)">
		<stop  offset="0" style="stop-color:#00FFFF"/>
		<stop  offset="0.2411" style="stop-color:#0000FF"/>
		<stop  offset="0.2769" style="stop-color:#2800FF"/>
		<stop  offset="0.3326" style="stop-color:#6000FF"/>
		<stop  offset="0.3885" style="stop-color:#9100FF"/>
		<stop  offset="0.4435" style="stop-color:#B900FF"/>
		<stop  offset="0.4974" style="stop-color:#D700FF"/>
		<stop  offset="0.5497" style="stop-color:#ED00FF"/>
		<stop  offset="0.5999" style="stop-color:#FB00FF"/>
		<stop  offset="0.6457" style="stop-color:#FF00FF"/>
		<stop  offset="0.7133" style="stop-color:#BF40BF"/>
		<stop  offset="0.7908" style="stop-color:#7C837C"/>
		<stop  offset="0.8611" style="stop-color:#46B946"/>
		<stop  offset="0.9215" style="stop-color:#20DF20"/>
		<stop  offset="0.9699" style="stop-color:#09F609"/>
		<stop  offset="1" style="stop-color:#00FF00"/>
	</linearGradient>
	
		<path fill="none" stroke="url(#SVGID_3_)" stroke-width="2" stroke-linecap="round" stroke-linejoin="round" stroke-miterlimit="10" d="
		M56.133,37.134c4.898-0.742,9.254-0.585,13.73,1.689"/>
	
		<linearGradient id="SVGID_4_" gradientUnits="userSpaceOnUse" x1="-935.0234" y1="-488.9604" x2="-921.0562" y2="-488.9604" gradientTransform="matrix(0.2736 -0.9619 -0.9619 -0.2736 -194.0511 -972.396)">
		<stop  offset="0" style="stop-color:#00FFFF"/>
		<stop  offset="0.2411" style="stop-color:#0000FF"/>
		<stop  offset="0.2769" style="stop-color:#2800FF"/>
		<stop  offset="0.3326" style="stop-color:#6000FF"/>
		<stop  offset="0.3885" style="stop-color:#9100FF"/>
		<stop  offset="0.4435" style="stop-color:#B900FF"/>
		<stop  offset="0.4974" style="stop-color:#D700FF"/>
		<stop  offset="0.5497" style="stop-color:#ED00FF"/>
		<stop  offset="0.5999" style="stop-color:#FB00FF"/>
		<stop  offset="0.6457" style="stop-color:#FF00FF"/>
		<stop  offset="0.7133" style="stop-color:#BF40BF"/>
		<stop  offset="0.7908" style="stop-color:#7C837C"/>
		<stop  offset="0.8611" style="stop-color:#46B946"/>
		<stop  offset="0.9215" style="stop-color:#20DF20"/>
		<stop  offset="0.9699" style="stop-color:#09F609"/>
		<stop  offset="1" style="stop-color:#00FF00"/>
	</linearGradient>
	
		<path fill="none" stroke="url(#SVGID_4_)" stroke-width="2" stroke-linecap="round" stroke-linejoin="round" stroke-miterlimit="10" d="
		M19.572,59.489c0.911-4.281,2.398-7.835,5.672-10.829"/>
	
		<linearGradient id="SVGID_5_" gradientUnits="userSpaceOnUse" x1="-784.7178" y1="-596.2822" x2="-770.7524" y2="-596.2822" gradientTransform="matrix(0.4257 -0.9049 -0.9049 -0.4257 -187.2593 -907.6257)">
		<stop  offset="0" style="stop-color:#00FFFF"/>
		<stop  offset="0.2411" style="stop-color:#0000FF"/>
		<stop  offset="0.2769" style="stop-color:#2800FF"/>
		<stop  offset="0.3326" style="stop-color:#6000FF"/>
		<stop  offset="0.3885" style="stop-color:#9100FF"/>
		<stop  offset="0.4435" style="stop-color:#B900FF"/>
		<stop  offset="0.4974" style="stop-color:#D700FF"/>
		<stop  offset="0.5497" style="stop-color:#ED00FF"/>
		<stop  offset="0.5999" style="stop-color:#FB00FF"/>
		<stop  offset="0.6457" style="stop-color:#FF00FF"/>
		<stop  offset="0.7133" style="stop-color:#BF40BF"/>
		<stop  offset="0.7908" style="stop-color:#7C837C"/>
		<stop  offset="0.8611" style="stop-color:#46B946"/>
		<stop  offset="0.9215" style="stop-color:#20DF20"/>
		<stop  offset="0.9699" style="stop-color:#09F609"/>
		<stop  offset="1" style="stop-color:#00FF00"/>
	</linearGradient>
	
		<path fill="none" stroke="url(#SVGID_5_)" stroke-width="2" stroke-linecap="round" stroke-linejoin="round" stroke-miterlimit="10" d="
		M17.596,54.885c1.592-4.079,3.634-7.344,7.35-9.767"/>
	
		<linearGradient id="SVGID_6_" gradientUnits="userSpaceOnUse" x1="821.9551" y1="36.3643" x2="837.0684" y2="36.3643" gradientTransform="matrix(0.7222 0.6917 0.6917 -0.7222 -524.6621 -489.7504)">
		<stop  offset="0" style="stop-color:#00FFFF"/>
		<stop  offset="0.2411" style="stop-color:#0000FF"/>
		<stop  offset="0.2769" style="stop-color:#2800FF"/>
		<stop  offset="0.3326" style="stop-color:#6000FF"/>
		<stop  offset="0.3885" style="stop-color:#9100FF"/>
		<stop  offset="0.4435" style="stop-color:#B900FF"/>
		<stop  offset="0.4974" style="stop-color:#D700FF"/>
		<stop  offset="0.5497" style="stop-color:#ED00FF"/>
		<stop  offset="0.5999" style="stop-color:#FB00FF"/>
		<stop  offset="0.6457" style="stop-color:#FF00FF"/>
		<stop  offset="0.7133" style="stop-color:#BF40BF"/>
		<stop  offset="0.7908" style="stop-color:#7C837C"/>
		<stop  offset="0.8611" style="stop-color:#46B946"/>
		<stop  offset="0.9215" style="stop-color:#20DF20"/>
		<stop  offset="0.9699" style="stop-color:#09F609"/>
		<stop  offset="1" style="stop-color:#00FF00"/>
	</linearGradient>
	
		<path fill="none" stroke="url(#SVGID_6_)" stroke-width="2" stroke-linecap="round" stroke-linejoin="round" stroke-miterlimit="10" d="
		M95.613,52.408c3.785,3.013,6.541,6.207,7.797,10.816"/>
	
		<linearGradient id="SVGID_7_" gradientUnits="userSpaceOnUse" x1="867.0684" y1="212.6768" x2="882.1094" y2="212.6768" gradientTransform="matrix(0.5846 0.8113 0.8113 -0.5846 -579.7551 -525.9472)">
		<stop  offset="0" style="stop-color:#00FFFF"/>
		<stop  offset="0.2411" style="stop-color:#0000FF"/>
		<stop  offset="0.2769" style="stop-color:#2800FF"/>
		<stop  offset="0.3326" style="stop-color:#6000FF"/>
		<stop  offset="0.3885" style="stop-color:#9100FF"/>
		<stop  offset="0.4435" style="stop-color:#B900FF"/>
		<stop  offset="0.4974" style="stop-color:#D700FF"/>
		<stop  offset="0.5497" style="stop-color:#ED00FF"/>
		<stop  offset="0.5999" style="stop-color:#FB00FF"/>
		<stop  offset="0.6457" style="stop-color:#FF00FF"/>
		<stop  offset="0.7133" style="stop-color:#BF40BF"/>
		<stop  offset="0.7908" style="stop-color:#7C837C"/>
		<stop  offset="0.8611" style="stop-color:#46B946"/>
		<stop  offset="0.9215" style="stop-color:#20DF20"/>
		<stop  offset="0.9699" style="stop-color:#09F609"/>
		<stop  offset="1" style="stop-color:#00FF00"/>
	</linearGradient>
	
		<path fill="none" stroke="url(#SVGID_7_)" stroke-width="2" stroke-linecap="round" stroke-linejoin="round" stroke-miterlimit="10" d="
		M101.189,53.317c3.158,3.629,5.271,7.253,5.645,12.007"/>
	
		<linearGradient id="SVGID_8_" gradientUnits="userSpaceOnUse" x1="631.7988" y1="820.5527" x2="647.2734" y2="820.5527" gradientTransform="matrix(-0.2344 0.9721 0.9721 0.2344 -546.4413 -722.6951)">
		<stop  offset="0" style="stop-color:#00FFFF"/>
		<stop  offset="0.2411" style="stop-color:#0000FF"/>
		<stop  offset="0.2769" style="stop-color:#2800FF"/>
		<stop  offset="0.3326" style="stop-color:#6000FF"/>
		<stop  offset="0.3885" style="stop-color:#9100FF"/>
		<stop  offset="0.4435" style="stop-color:#B900FF"/>
		<stop  offset="0.4974" style="stop-color:#D700FF"/>
		<stop  offset="0.5497" style="stop-color:#ED00FF"/>
		<stop  offset="0.5999" style="stop-color:#FB00FF"/>
		<stop  offset="0.6457" style="stop-color:#FF00FF"/>
		<stop  offset="0.7133" style="stop-color:#BF40BF"/>
		<stop  offset="0.7908" style="stop-color:#7C837C"/>
		<stop  offset="0.8611" style="stop-color:#46B946"/>
		<stop  offset="0.9215" style="stop-color:#20DF20"/>
		<stop  offset="0.9699" style="stop-color:#09F609"/>
		<stop  offset="1" style="stop-color:#00FF00"/>
	</linearGradient>
	
		<path fill="none" stroke="url(#SVGID_8_)" stroke-width="2" stroke-linecap="round" stroke-linejoin="round" stroke-miterlimit="10" d="
		M104.211,85.105c-0.83,4.857-2.34,8.924-5.889,12.439"/>
	
		<linearGradient id="SVGID_9_" gradientUnits="userSpaceOnUse" x1="547.3301" y1="931.0117" x2="562.8037" y2="931.0117" gradientTransform="matrix(-0.3865 0.9223 0.9223 0.3865 -541.4825 -775.8586)">
		<stop  offset="0" style="stop-color:#00FFFF"/>
		<stop  offset="0.2411" style="stop-color:#0000FF"/>
		<stop  offset="0.2769" style="stop-color:#2800FF"/>
		<stop  offset="0.3326" style="stop-color:#6000FF"/>
		<stop  offset="0.3885" style="stop-color:#9100FF"/>
		<stop  offset="0.4435" style="stop-color:#B900FF"/>
		<stop  offset="0.4974" style="stop-color:#D700FF"/>
		<stop  offset="0.5497" style="stop-color:#ED00FF"/>
		<stop  offset="0.5999" style="stop-color:#FB00FF"/>
		<stop  offset="0.6457" style="stop-color:#FF00FF"/>
		<stop  offset="0.7133" style="stop-color:#BF40BF"/>
		<stop  offset="0.7908" style="stop-color:#7C837C"/>
		<stop  offset="0.8611" style="stop-color:#46B946"/>
		<stop  offset="0.9215" style="stop-color:#20DF20"/>
		<stop  offset="0.9699" style="stop-color:#09F609"/>
		<stop  offset="1" style="stop-color:#00FF00"/>
	</linearGradient>
	
		<path fill="none" stroke="url(#SVGID_9_)" stroke-width="2" stroke-linecap="round" stroke-linejoin="round" stroke-miterlimit="10" d="
		M106.514,90.229c-1.594,4.664-3.731,8.437-7.797,11.342"/>
	
		<linearGradient id="SVGID_10_" gradientUnits="userSpaceOnUse" x1="-338.1431" y1="878.9639" x2="-322.667" y2="878.9639" gradientTransform="matrix(-0.9832 0.1823 0.1823 0.9832 -422.4687 -693.8851)">
		<stop  offset="0" style="stop-color:#00FFFF"/>
		<stop  offset="0.2411" style="stop-color:#0000FF"/>
		<stop  offset="0.2769" style="stop-color:#2800FF"/>
		<stop  offset="0.3326" style="stop-color:#6000FF"/>
		<stop  offset="0.3885" style="stop-color:#9100FF"/>
		<stop  offset="0.4435" style="stop-color:#B900FF"/>
		<stop  offset="0.4974" style="stop-color:#D700FF"/>
		<stop  offset="0.5497" style="stop-color:#ED00FF"/>
		<stop  offset="0.5999" style="stop-color:#FB00FF"/>
		<stop  offset="0.6457" style="stop-color:#FF00FF"/>
		<stop  offset="0.7133" style="stop-color:#BF40BF"/>
		<stop  offset="0.7908" style="stop-color:#7C837C"/>
		<stop  offset="0.8611" style="stop-color:#46B946"/>
		<stop  offset="0.9215" style="stop-color:#20DF20"/>
		<stop  offset="0.9699" style="stop-color:#09F609"/>
		<stop  offset="1" style="stop-color:#00FF00"/>
	</linearGradient>
	
		<path fill="none" stroke="url(#SVGID_10_)" stroke-width="2" stroke-linecap="round" stroke-linejoin="round" stroke-miterlimit="10" d="
		M69.493,110.188c-4.776,1.225-9.103,1.502-13.761-0.305"/>
	
		<linearGradient id="SVGID_11_" gradientUnits="userSpaceOnUse" x1="-395.1885" y1="850.6758" x2="-379.7158" y2="850.6758" gradientTransform="matrix(-0.9984 0.0563 0.0563 0.9984 -376.1092 -714.8324)">
		<stop  offset="0" style="stop-color:#00FFFF"/>
		<stop  offset="0.2411" style="stop-color:#0000FF"/>
		<stop  offset="0.2769" style="stop-color:#2800FF"/>
		<stop  offset="0.3326" style="stop-color:#6000FF"/>
		<stop  offset="0.3885" style="stop-color:#9100FF"/>
		<stop  offset="0.4435" style="stop-color:#B900FF"/>
		<stop  offset="0.4974" style="stop-color:#D700FF"/>
		<stop  offset="0.5497" style="stop-color:#ED00FF"/>
		<stop  offset="0.5999" style="stop-color:#FB00FF"/>
		<stop  offset="0.6457" style="stop-color:#FF00FF"/>
		<stop  offset="0.7133" style="stop-color:#BF40BF"/>
		<stop  offset="0.7908" style="stop-color:#7C837C"/>
		<stop  offset="0.8611" style="stop-color:#46B946"/>
		<stop  offset="0.9215" style="stop-color:#20DF20"/>
		<stop  offset="0.9699" style="stop-color:#09F609"/>
		<stop  offset="1" style="stop-color:#00FF00"/>
	</linearGradient>
	
		<path fill="none" stroke="url(#SVGID_11_)" stroke-width="2" stroke-linecap="round" stroke-linejoin="round" stroke-miterlimit="10" d="
		M65.418,113.645c-4.891,0.609-9.219,0.338-13.609-2.043"/>
	
		<linearGradient id="SVGID_12_" gradientUnits="userSpaceOnUse" x1="-1187.3613" y1="-94.3828" x2="-1173.6035" y2="-94.3828" gradientTransform="matrix(-0.5853 -0.8108 -0.8108 0.5853 -746.922 -816.1403)">
		<stop  offset="0" style="stop-color:#00FFFF"/>
		<stop  offset="0.2411" style="stop-color:#0000FF"/>
		<stop  offset="0.2769" style="stop-color:#2800FF"/>
		<stop  offset="0.3326" style="stop-color:#6000FF"/>
		<stop  offset="0.3885" style="stop-color:#9100FF"/>
		<stop  offset="0.4435" style="stop-color:#B900FF"/>
		<stop  offset="0.4974" style="stop-color:#D700FF"/>
		<stop  offset="0.5497" style="stop-color:#ED00FF"/>
		<stop  offset="0.5999" style="stop-color:#FB00FF"/>
		<stop  offset="0.6457" style="stop-color:#FF00FF"/>
		<stop  offset="0.7133" style="stop-color:#BF40BF"/>
		<stop  offset="0.7908" style="stop-color:#7C837C"/>
		<stop  offset="0.8611" style="stop-color:#46B946"/>
		<stop  offset="0.9215" style="stop-color:#20DF20"/>
		<stop  offset="0.9699" style="stop-color:#09F609"/>
		<stop  offset="1" style="stop-color:#00FF00"/>
	</linearGradient>
	
		<path fill="none" stroke="url(#SVGID_12_)" stroke-width="2" stroke-linecap="round" stroke-linejoin="round" stroke-miterlimit="10" d="
		M22.442,91.63c-2.33-3.461-3.81-6.983-3.806-11.754"/>
	
		<linearGradient id="SVGID_13_" gradientUnits="userSpaceOnUse" x1="-1126.0615" y1="-204.5698" x2="-1112.0156" y2="-204.5698" gradientTransform="matrix(-0.4928 -0.8701 -0.8701 0.4928 -713.097 -789.4339)">
		<stop  offset="0" style="stop-color:#00FFFF"/>
		<stop  offset="0.2411" style="stop-color:#0000FF"/>
		<stop  offset="0.2769" style="stop-color:#2800FF"/>
		<stop  offset="0.3326" style="stop-color:#6000FF"/>
		<stop  offset="0.3885" style="stop-color:#9100FF"/>
		<stop  offset="0.4435" style="stop-color:#B900FF"/>
		<stop  offset="0.4974" style="stop-color:#D700FF"/>
		<stop  offset="0.5497" style="stop-color:#ED00FF"/>
		<stop  offset="0.5999" style="stop-color:#FB00FF"/>
		<stop  offset="0.6457" style="stop-color:#FF00FF"/>
		<stop  offset="0.7133" style="stop-color:#BF40BF"/>
		<stop  offset="0.7908" style="stop-color:#7C837C"/>
		<stop  offset="0.8611" style="stop-color:#46B946"/>
		<stop  offset="0.9215" style="stop-color:#20DF20"/>
		<stop  offset="0.9699" style="stop-color:#09F609"/>
		<stop  offset="1" style="stop-color:#00FF00"/>
	</linearGradient>
	
		<path fill="none" stroke="url(#SVGID_13_)" stroke-width="2" stroke-linecap="round" stroke-linejoin="round" stroke-miterlimit="10" d="
		M17.675,89.607c-1.957-3.795-3.078-7.543-2.627-12.355"/>
</g>
<path fill="#FFFFFF" stroke="#000000" stroke-linecap="round" stroke-linejoin="round" stroke-miterlimit="10" d="M40.471,102.9
	c-0.71,1.175-3.692,0.676-6.661-1.118c-2.968-1.794-4.799-4.199-4.089-5.376c0.71-1.174,3.692-0.674,6.66,1.119
	C39.35,99.318,41.181,101.727,40.471,102.9z"/>
<path fill="#FFFFFF" stroke="#000000" stroke-linecap="round" stroke-linejoin="round" stroke-miterlimit="10" d="M89.604,101.561
	c0.57,1.248-1.52,3.434-4.672,4.879c-3.152,1.443-6.173,1.604-6.744,0.357c-0.57-1.248,1.52-3.432,4.672-4.879
	C86.009,100.473,89.029,100.312,89.604,101.561z"/>
</svg>
