<?xml version="1.0" encoding="utf-8"?>
<!-- Generator: Adobe Illustrator 16.0.4, SVG Export Plug-In . SVG Version: 6.00 Build 0)  -->
<!DOCTYPE svg PUBLIC "-//W3C//DTD SVG 1.1//EN" "http://www.w3.org/Graphics/SVG/1.1/DTD/svg11.dtd">
<svg version="1.1" id="Layer_1" xmlns="http://www.w3.org/2000/svg" xmlns:xlink="http://www.w3.org/1999/xlink" x="0px" y="0px"
	 width="512px" height="512px" viewBox="0 0 512 512" enable-background="new 0 0 512 512" xml:space="preserve">
<path fill="#FFFFFF" stroke="#231F20" stroke-width="3" stroke-linecap="round" stroke-linejoin="round" stroke-miterlimit="10" d="
	M290.342,412.547c0,0,21.9,25.886,7.663,47.381c-4.589,6.934-26.419,26.733-8.868,32.679c7.379,2.5,21.05-10.857,45.63-17.386
	c14.52-3.859,9.387-18.014-3.896-27.813c-8.897-6.566-8.126-26.782-7.05-47.617L290.342,412.547z"/>
<path fill="#FFFFFF" stroke="#231F20" stroke-width="3" stroke-linecap="round" stroke-linejoin="round" stroke-miterlimit="10" d="
	M186.777,279.555c0,0-37.258,2.351-51.123-3.601c0,0-3.676-21.08-17.154-24.064c0,0-8.951-23.047-16.553-19.45
	c0,0-8.081,1.267,5.938,19.225c0,0-28.785,10.171-10.876,34.312c6.318,8.516,16.045,7.386,26.541,4.106
	c10.263-3.205,61.042,18.706,80.052,28.222L186.777,279.555z"/>
<linearGradient id="SVGID_1_" gradientUnits="userSpaceOnUse" x1="360.8252" y1="54.9551" x2="374.7562" y2="349.5614" gradientTransform="matrix(0.4401 0.8979 0.8979 -0.4401 -21.9844 -29.676)">
	<stop  offset="0" style="stop-color:#646464"/>
	<stop  offset="0.4339" style="stop-color:#ADADAD"/>
	<stop  offset="0.8173" style="stop-color:#E8E8E8"/>
	<stop  offset="1" style="stop-color:#FFFFFF"/>
</linearGradient>
<path fill="url(#SVGID_1_)" stroke="#DF0CEA" stroke-width="3" stroke-linecap="round" stroke-linejoin="round" stroke-miterlimit="10" d="
	M330.667,19.157c0,0-13.085,3.613-20.632,17.253c10.172,0,74.155,4.428,110.77,53.52c0,0-30.364-5.467-49.143,9.204
	c0,0,63.596,19.754,82.867,73.231c0,0-17.345,0-46.252,13.595c0,0,37.618,38.789,49.143,90.47c0,0-25.015-14.209-46.251-2.654
	c0,0,32.164,47.274,17.199,93.97c0,0-13.674-11.274-38.701-12.104c0,0-25.333,44.148-69.409,65.626L206.545,64.956
	C206.545,64.956,239.871,16.99,330.667,19.157z"/>
<path fill="#FFFFFF" stroke="#000000" stroke-width="3" stroke-linecap="round" stroke-linejoin="round" stroke-miterlimit="10" d="
	M375.036,270.649c2.655-49.451-16.53-114.362-46.353-177.353c26.116-8.617,5.399-41.858,5.399-41.858
	C325.651,61.792,318.378,67.6,318.378,67.6c0,3.855-12.517-27.7-58.491-27.7c-12.759,0-23.179,2.121-27,3.084
	c-23.138,5.834-34.367-1.243-34.367-1.243c-2.891,10.298,5.081,18.162,5.081,18.162c-11.766,8.048-23.232-4.683-23.232-4.683
	c0.181,19.693,9.927,24.423,9.927,24.423c-8.629,34.321-26.629,67.836-51.174,54.023c0,0,4.883,23.951,12.253,35.328
	c12.357,19.074,32.5,28.05,63.334,29.751c-21.515,40.427-25.208,47.701-32.69,78.911c-8.085,33.728-2.128,67.342,4.336,83.832
	c7.348,18.74,15.039,37.312,28.562,51.458c1.465,15.82-1.515,41.083-12.949,49.278c-6.758,4.841-34.207,15.575-19.924,27.377
	c6.006,4.963,20.646-2.647,45.94,0c14.94,1.566,15.183-13.488,6.263-27.377c-3.667-5.71-0.092-21.935,3.612-32.615
	c8.878,4.619,18.514,5.295,28.846,5.295C318.021,434.904,367,420.333,375.036,270.649z"/>
<path fill="none" stroke="#231F20" stroke-width="3" stroke-linecap="round" stroke-linejoin="round" stroke-miterlimit="10" d="
	M126.972,260.76c0,0-18.402,2.15-21.482,12.869c-1.415,4.929-1.113,18.842,15.619-4.733"/>
<path fill="none" stroke="#231F20" stroke-width="3" stroke-linecap="round" stroke-linejoin="round" stroke-miterlimit="10" d="
	M117.274,274.581c0.218,2.52-0.632,8.029,4.578,9.017"/>
<path fill="none" stroke="#231F20" stroke-width="3" stroke-linecap="round" stroke-linejoin="round" stroke-miterlimit="10" d="
	M104.009,254.088c1.219-2.14-0.798,10.026,5.208,12.728"/>
<path fill="none" stroke="#231F20" stroke-width="3" stroke-linecap="round" stroke-linejoin="round" stroke-miterlimit="10" d="
	M94.761,262.51c0,0,2.444,11.144,7.628,12.26"/>
<ellipse stroke="#000000" stroke-width="3" stroke-linecap="round" stroke-linejoin="round" stroke-miterlimit="10" cx="142.545" cy="140.479" rx="11.806" ry="10.8"/>
<g>
	<g>
		<path fill="none" stroke="#000000" stroke-width="3" stroke-linecap="round" stroke-linejoin="round" stroke-miterlimit="10" d="
			M297.024,350.331c11.284,5.751-0.342,16.67-0.342,16.67c18.044-17.643,25.288-13.146,20.641-6.08c0,0-6.73,13.22-17.444,12.819
			c-24.74-0.926-25.295-26.772-11.731-37.77c47.326-38.382-6.612-45.406-6.612-45.406"/>
		<path fill="none" stroke="#000000" stroke-width="3" stroke-linecap="round" stroke-linejoin="round" stroke-miterlimit="10" d="
			M311.929,355.642c-1.569-12.877-9.382-16.677-9.382-16.677"/>
		<path fill="none" stroke="#000000" stroke-width="3" stroke-linecap="round" stroke-linejoin="round" stroke-miterlimit="10" d="
			M296.309,261.892c0,0,51.07,39.411,9.541,78.9"/>
	</g>
</g>
<ellipse transform="matrix(0.9616 0.2744 -0.2744 0.9616 38.7101 -56.1462)" fill="none" stroke="#000000" stroke-width="2" stroke-linecap="round" stroke-linejoin="round" stroke-miterlimit="10" cx="220.013" cy="110.271" rx="14.516" ry="14.898"/>
<path stroke="#000000" stroke-width="2" stroke-linecap="round" stroke-linejoin="round" stroke-miterlimit="10" d="
	M232.887,112.914c0,5.644-5.336,10.218-10.504,10.218c-5.169,0-9.358-4.575-9.358-10.218c0-5.644,4.189-10.218,9.358-10.218
	C227.551,102.695,232.887,107.27,232.887,112.914z"/>
<path fill="#FFFFFF" d="M220.574,109.841c-0.686,1.855-1.462,2.057-2.225,1.775c-0.762-0.282-1.221-0.939-0.536-2.794
	c0.686-1.855,1.462-2.057,2.223-1.776C220.8,107.329,221.259,107.987,220.574,109.841z"/>
<ellipse fill="#FFFFFF" cx="218.046" cy="113.964" rx="0.821" ry="1.146"/>
<path fill="none" stroke="#000000" stroke-width="3" stroke-linecap="round" stroke-linejoin="round" stroke-miterlimit="10" d="
	M221.31,82.367c0,0,19.067-8.094,21.451,12.483"/>
<ellipse transform="matrix(0.9721 -0.2346 0.2346 0.9721 -45.3557 28.4688)" fill="#FFFFFF" stroke="#DF0CEA" stroke-width="5" stroke-miterlimit="10" cx="96.959" cy="204.837" rx="24.137" ry="24.813"/>
<path fill="none" stroke="#000000" stroke-width="0.75" stroke-linecap="round" stroke-linejoin="round" stroke-miterlimit="10" d="
	M69.751,198.519c0,0-24.06,15.301,13.151,10.456"/>
<path fill="none" stroke="#000000" stroke-width="0.75" stroke-linecap="round" stroke-linejoin="round" stroke-miterlimit="10" d="
	M70.632,205.245c0,0-21.696,12.781,9.674,9.56"/>
<path fill="none" stroke="#000000" stroke-width="0.75" stroke-linecap="round" stroke-linejoin="round" stroke-miterlimit="10" d="
	M119.748,188.898c0,0,6.513,5.035-6.062,7.484"/>
<path fill="none" stroke="#000000" stroke-width="0.75" stroke-linecap="round" stroke-linejoin="round" stroke-miterlimit="10" d="
	M123.738,190.953c0,0,6.421,5.15-6.194,7.375"/>
<line fill="none" stroke="#231F20" stroke-width="3" stroke-linecap="round" stroke-linejoin="round" stroke-miterlimit="10" x1="182.821" y1="474.405" x2="193.297" y2="479.727"/>
<path fill="none" stroke="#231F20" stroke-width="3" stroke-linecap="round" stroke-linejoin="round" stroke-miterlimit="10" d="
	M193.297,469.086l10.475,5.319L193.297,469.086z"/>
<line fill="none" stroke="#231F20" stroke-width="3" stroke-linecap="round" stroke-linejoin="round" stroke-miterlimit="10" x1="284.45" y1="478.129" x2="296.133" y2="479.372"/>
<path fill="none" stroke="#231F20" stroke-width="3" stroke-linecap="round" stroke-linejoin="round" stroke-miterlimit="10" d="
	M292.345,469.431l11.683,1.239L292.345,469.431z"/>
<path fill="none" stroke="#000000" stroke-width="3" stroke-linecap="round" stroke-linejoin="round" stroke-miterlimit="10" d="
	M173.479,188.921c0,0,15.726-2.38,23.642-20.447c0,0,10.429,15.358-2.891,27.191"/>
</svg>
